<svg height="95" viewBox="0 0 66.895 94.25" width="67" xmlns="http://www.w3.org/2000/svg"><g fill="#f04e23"><path d="m3.379 16.05a2.485 2.485 0 0 0 .8.1 2.518 2.518 0 0 0 2-.9 23.629 23.629 0 0 1 11.4-7.4 3.092 3.092 0 0 0 1.7-1.5 4.046 4.046 0 0 0 -.1-3.4 4.651 4.651 0 0 0 -3-2.8 2.208 2.208 0 0 0 -1.6 0 28.965 28.965 0 0 0 -13.8 9c-1.2 1.4-1 3.7.5 5.4a5.106 5.106 0 0 0 2.1 1.5z"/><path d="m14.079 17.65a4.484 4.484 0 0 0 .4 3.4 4.721 4.721 0 0 0 2.7 2.3 2.485 2.485 0 0 0 .8.1 2.663 2.663 0 0 0 1.2-.3 19.023 19.023 0 0 1 6.7-1.8 2.654 2.654 0 0 0 1.9-1.1 3.948 3.948 0 0 0 .4-3.2 4.688 4.688 0 0 0 -3.1-3.3 3.75 3.75 0 0 0 -1.1-.1 23.383 23.383 0 0 0 -8.6 2.3 4.524 4.524 0 0 0 -1.3 1.7z"/><path d="m65.779 23.95-1.2-1.5a45.746 45.746 0 0 0 -2.9-3.6 56.633 56.633 0 0 0 -23-16.6 35.8 35.8 0 0 0 -3.5-1.1 48.16 48.16 0 0 0 -5.2-1.1 2.723 2.723 0 0 0 -2.4.9 3.522 3.522 0 0 0 -.7 2.8 4.865 4.865 0 0 0 3.3 4.1c.1 0 .3.1.4.1a34.348 34.348 0 0 1 4.4.9c.9.3 1.9.6 2.9.9 7.3 2.7 13.7 7.3 19.5 14 .8.9 1.5 1.9 2.4 3 .4.6.9 1.1 1.3 1.7a5.028 5.028 0 0 0 2.2 1.6 2.485 2.485 0 0 0 .8.1 2.732 2.732 0 0 0 1.9-.8c1.3-1.3 1.2-3.6-.2-5.4z"/><path d="m63.579 57.85v-1.1a42.837 42.837 0 0 0 -3.2-15.4 51.078 51.078 0 0 0 -8.1-13.7 42.107 42.107 0 0 0 -11.7-9.7 9.143 9.143 0 0 0 -1.4-.7 1.421 1.421 0 0 0 -.6-.2 2.2 2.2 0 0 0 -.8-.1 2.734 2.734 0 0 0 -2.7 2.6 5 5 0 0 0 2.7 4.9c.3.2.6.3.9.5a33.31 33.31 0 0 1 9.2 7.5 38.6 38.6 0 0 1 6.4 10.9 35.294 35.294 0 0 1 2.5 12.1v.7l.1 3.6a12.75 12.75 0 0 0 .1 2 4.85 4.85 0 0 0 3.3 4.4 2.2 2.2 0 0 0 .8.1 2.732 2.732 0 0 0 1.9-.8 3.069 3.069 0 0 0 .8-2.4 12.1 12.1 0 0 0 -.1-1.9z"/><path d="m35.579 54.65a17.7 17.7 0 0 0 -.1-2.3l-.1-2.2a4.507 4.507 0 0 0 -3.1-4.2 2.745 2.745 0 0 0 -2.6.6 2.648 2.648 0 0 0 -.8 2.2v2.2a16.2 16.2 0 0 0 .1 2.2c0 1.4.1 3.3 0 4.7-.2 5.6-1.5 10-4.1 13.4a43.237 43.237 0 0 1 -4.5 5c-.7.7-1.5 1.5-2.2 2.3l-.5.5a11.3 11.3 0 0 0 -1.1 1.1 3.862 3.862 0 0 0 .5 5 4.069 4.069 0 0 0 1.9 1.3 2.2 2.2 0 0 0 .8.1 2.463 2.463 0 0 0 1.9-.9 2.336 2.336 0 0 1 .7-.7 5.716 5.716 0 0 0 .7-.8l2.1-2.1a52.692 52.692 0 0 0 5-5.6c3.3-4.3 5-10 5.2-17a24.732 24.732 0 0 0 .2-4.8z"/><path d="m10.279 47.55v-.2c0-.8-.1-1.5-.1-2.3l-.1-3.3c-.1-4.8.7-8.8 2.6-11.9a4.423 4.423 0 0 0 -1.2-5.3 4.784 4.784 0 0 0 -1.7-1 2.583 2.583 0 0 0 -3.1 1.2c-2.4 4.2-3.5 9.4-3.4 15.6 0 1.1 0 2.1.1 3.2a16.95 16.95 0 0 0 .1 2.3v.1a3.4 3.4 0 0 1 -.2 1.4 1.8 1.8 0 0 1 -.6.9l-.6.6-.6.6c-1.4 1.1-1.5 3.4-.2 5.3a4.3 4.3 0 0 0 2.4 1.8 2.2 2.2 0 0 0 .8.1 2.716 2.716 0 0 0 1.7-.6 13.576 13.576 0 0 0 1.2-1.2l.3-.3a8.251 8.251 0 0 0 2-3.2 7.629 7.629 0 0 0 .6-3.8z"/><path d="m49.279 52.35a22.74 22.74 0 0 0 -1.6-7.3 27.447 27.447 0 0 0 -6-9.4 19.692 19.692 0 0 0 -8.9-5.5l-.7-.2c-4.4-1-8.5-.1-11.4 2.6s-4.4 6.9-4.4 11.8v2.5c0 1.7.1 3.4 0 4.9a14.234 14.234 0 0 1 -.8 4.5 11.258 11.258 0 0 1 -2.1 3.5c-1 1.1-2 2.1-3.1 3.3l-.8.8c-1.2 1.2-1.1 3.5.2 5.1a4.535 4.535 0 0 0 2.1 1.5 2.747 2.747 0 0 0 2.6-.6l.7-.7c1.1-1.1 2.3-2.3 3.4-3.5a17.077 17.077 0 0 0 3.2-5.3 19.332 19.332 0 0 0 1.2-6.7c.1-1.8 0-3.6 0-5.3v-2.4c0-3.1.9-5.6 2.6-7.1 1.7-1.6 3.9-2.1 6.7-1.4l.4.1a13.548 13.548 0 0 1 6.9 5.1 23.7 23.7 0 0 1 2.3 4.1 13.385 13.385 0 0 1 1 4.4c.1 1.4.1 2.7.1 4.1v4.1c0 7.8-1.5 14.5-4.8 20.4a32.873 32.873 0 0 1 -6.1 7.8 3.932 3.932 0 0 0 .1 5.1 3.821 3.821 0 0 0 2.2 1.5 2.2 2.2 0 0 0 .8.1 2.41 2.41 0 0 0 1.8-.7 39.161 39.161 0 0 0 7.1-9.1c3.8-6.8 5.6-14.8 5.6-23.7 0-1.4 0-2.8-.1-4.3-.1-1.2-.1-2.6-.2-4.1z"/></g></svg>